<?xml version="1.0" encoding="UTF-8" standalone="no"?>
<!-- Created with Inkscape (http://www.inkscape.org/) -->

<svg
   xmlns:dc="http://purl.org/dc/elements/1.1/"
   xmlns:cc="http://creativecommons.org/ns#"
   xmlns:rdf="http://www.w3.org/1999/02/22-rdf-syntax-ns#"
   xmlns:svg="http://www.w3.org/2000/svg"
   xmlns="http://www.w3.org/2000/svg"
   xmlns:sodipodi="http://sodipodi.sourceforge.net/DTD/sodipodi-0.dtd"
   xmlns:inkscape="http://www.inkscape.org/namespaces/inkscape"
   width="210mm"
   height="297mm"
   viewBox="0 0 744.09448819 1052.3622047"
   id="svg2"
   version="1.1"
   inkscape:version="0.91 r13725"
   sodipodi:docname="fullstack.svg"
   inkscape:export-filename="/home/compsci/a2_parks_code/websites/FullStack/images/fullstack.png"
   inkscape:export-xdpi="90"
   inkscape:export-ydpi="90">
  <defs
     id="defs4">
    <inkscape:perspective
       sodipodi:type="inkscape:persp3d"
       inkscape:vp_x="-8.0812204 : 594.87146 : 1"
       inkscape:vp_y="0 : 999.99998 : 0"
       inkscape:vp_z="736.01326 : 594.87146 : 1"
       inkscape:persp3d-origin="363.96602 : 419.47776 : 1"
       id="perspective3436" />
    <inkscape:perspective
       sodipodi:type="inkscape:persp3d"
       inkscape:vp_x="0 : 526.1811 : 1"
       inkscape:vp_y="0 : 1000 : 0"
       inkscape:vp_z="744.09449 : 526.1811 : 1"
       inkscape:persp3d-origin="372.04724 : 350.7874 : 1"
       id="perspective3336" />
  </defs>
  <sodipodi:namedview
     id="base"
     pagecolor="#ffffff"
     bordercolor="#666666"
     borderopacity="1.0"
     inkscape:pageopacity="0.0"
     inkscape:pageshadow="2"
     inkscape:zoom="0.49497475"
     inkscape:cx="1502.8503"
     inkscape:cy="520"
     inkscape:document-units="px"
     inkscape:current-layer="layer1"
     showgrid="false"
     inkscape:window-width="1920"
     inkscape:window-height="1149"
     inkscape:window-x="0"
     inkscape:window-y="0"
     inkscape:window-maximized="1"
     inkscape:snap-text-baseline="false"
     inkscape:snap-center="false"
     inkscape:snap-object-midpoints="false" />
  <metadata
     id="metadata7">
    <rdf:RDF>
      <cc:Work
         rdf:about="">
        <dc:format>image/svg+xml</dc:format>
        <dc:type
           rdf:resource="http://purl.org/dc/dcmitype/StillImage" />
        <dc:title></dc:title>
      </cc:Work>
    </rdf:RDF>
  </metadata>
  <g
     inkscape:label="Layer 1"
     inkscape:groupmode="layer"
     id="layer1">
    <text
       xml:space="preserve"
       style="font-style:normal;font-weight:normal;font-size:48.20833969px;line-height:125%;font-family:sans-serif;letter-spacing:0px;word-spacing:0px;fill:#008000;fill-opacity:1;stroke:none;stroke-width:1px;stroke-linecap:butt;stroke-linejoin:miter;stroke-opacity:1;"
       x="64.356766"
       y="142.61261"
       id="text3352"
       sodipodi:linespacing="125%"
       transform="scale(0.7869208,1.2707759)"><tspan
         sodipodi:role="line"
         id="tspan3354"
         x="64.356766"
         y="142.61261">Server- a remove computer</tspan></text>
    <flowRoot
       xml:space="preserve"
       id="flowRoot3356"
       style="fill:black;stroke:none;stroke-opacity:1;stroke-width:1px;stroke-linejoin:miter;stroke-linecap:butt;fill-opacity:1;font-family:sans-serif;font-style:normal;font-weight:normal;font-size:40px;line-height:125%;letter-spacing:0px;word-spacing:0px"><flowRegion
         id="flowRegion3358"><rect
           id="rect3360"
           width="38.385796"
           height="46.467018"
           x="26.263966"
           y="70.493935" /></flowRegion><flowPara
         id="flowPara3362"></flowPara></flowRoot>    <flowRoot
       xml:space="preserve"
       id="flowRoot3364"
       style="fill:black;stroke:none;stroke-opacity:1;stroke-width:1px;stroke-linejoin:miter;stroke-linecap:butt;fill-opacity:1;font-family:sans-serif;font-style:normal;font-weight:normal;font-size:40px;line-height:125%;letter-spacing:0px;word-spacing:0px"><flowRegion
         id="flowRegion3366"><rect
           id="rect3368"
           width="499.01535"
           height="137.38075"
           x="145.46196"
           y="13.925388" /></flowRegion><flowPara
         id="flowPara3370"></flowPara></flowRoot>    <flowRoot
       xml:space="preserve"
       id="flowRoot3372"
       style="fill:black;stroke:none;stroke-opacity:1;stroke-width:1px;stroke-linejoin:miter;stroke-linecap:butt;fill-opacity:1;font-family:sans-serif;font-style:normal;font-weight:normal;font-size:40px;line-height:125%;letter-spacing:0px;word-spacing:0px"><flowRegion
         id="flowRegion3374"><rect
           id="rect3376"
           width="14.142136"
           height="40.406101"
           x="50.507626"
           y="66.453323" /></flowRegion><flowPara
         id="flowPara3378"></flowPara></flowRoot>    <text
       xml:space="preserve"
       style="font-style:normal;font-weight:normal;font-size:38.8612175px;line-height:125%;font-family:sans-serif;letter-spacing:0px;word-spacing:0px;fill:#000000;fill-opacity:1;stroke:none;stroke-width:1px;stroke-linecap:butt;stroke-linejoin:miter;stroke-opacity:1"
       x="542.00543"
       y="348.32187"
       id="text3380"
       sodipodi:linespacing="125%"
       transform="scale(0.84001116,1.1904604)"><tspan
         sodipodi:role="line"
         id="tspan3382"
         x="542.00543"
         y="348.32187">MySQL database</tspan></text>
    <path
       style="fill:#008000"
       id="path3384"
       d="m 357.64257,393.61894 c 10.20455,-4.07696 19.94507,-9.18454 30.09351,-13.39119 7.87859,-2.79052 15.01169,-7.22518 22.89624,-9.9734 4.20707,-2.02325 8.70137,-2.94549 13.31309,-3.36015 5.82707,-0.84563 10.63217,1.62673 15.40858,4.67176 5.03299,3.13815 7.91738,7.50778 9.45715,13.11441 0.95918,4.86202 2.74127,8.10791 6.48706,11.2627 2.30296,1.8528 1.11754,0.99953 3.55062,2.5676 0,0 -25.28136,16.15457 -25.28136,16.15457 l 0,0 c -2.57779,-1.83838 -1.32638,-0.87888 -3.75557,-2.87679 -3.84037,-3.5002 -6.34189,-7.67398 -7.36112,-12.83285 -1.16842,-4.96771 -3.71655,-8.54769 -8.22053,-11.15339 -4.59228,-2.6421 -9.02976,-4.04468 -14.36401,-2.95813 -4.43854,0.70288 -8.65679,2.09169 -12.79084,3.85243 -7.60098,3.06549 -14.81636,7.02323 -22.52744,9.84143 -10.20357,4.41731 -20.13667,9.43901 -30.45353,13.59835 0,0 23.54815,-18.51735 23.54815,-18.51735 z"
       inkscape:connector-curvature="0" />
    <text
       xml:space="preserve"
       style="font-style:normal;font-weight:normal;font-size:41.12831879px;line-height:125%;font-family:sans-serif;letter-spacing:0px;word-spacing:0px;fill:#000000;fill-opacity:1;stroke:none;stroke-width:1px;stroke-linecap:butt;stroke-linejoin:miter;stroke-opacity:1"
       x="688.87024"
       y="385.80142"
       id="text3388"
       sodipodi:linespacing="125%"
       transform="scale(0.69960124,1.4293857)"><tspan
         sodipodi:role="line"
         id="tspan3390"
         x="688.87024"
         y="385.80142">PHP prog lang</tspan></text>
    <text
       xml:space="preserve"
       style="font-style:normal;font-weight:normal;font-size:40px;line-height:125%;font-family:sans-serif;letter-spacing:0px;word-spacing:0px;fill:#000000;fill-opacity:1;stroke:none;stroke-width:1px;stroke-linecap:butt;stroke-linejoin:miter;stroke-opacity:1"
       x="58.588852"
       y="1034.1794"
       id="text3406"
       sodipodi:linespacing="125%"><tspan
         sodipodi:role="line"
         id="tspan3408"
         x="58.588852"
         y="1034.1794"
         style="fill:#88aa00">Client - Computer in front of us</tspan></text>
    <text
       xml:space="preserve"
       style="font-style:normal;font-weight:normal;font-size:40px;line-height:125%;font-family:sans-serif;letter-spacing:0px;word-spacing:0px;fill:#000000;fill-opacity:1;stroke:none;stroke-width:1px;stroke-linecap:butt;stroke-linejoin:miter;stroke-opacity:1"
       x="371.73615"
       y="739.2149"
       id="text3410"
       sodipodi:linespacing="125%"><tspan
         sodipodi:role="line"
         id="tspan3412"
         x="371.73615"
         y="739.2149">Html</tspan></text>
    <text
       xml:space="preserve"
       style="font-style:normal;font-weight:normal;font-size:40px;line-height:125%;font-family:sans-serif;letter-spacing:0px;word-spacing:0px;fill:#000000;fill-opacity:1;stroke:none;stroke-width:1px;stroke-linecap:butt;stroke-linejoin:miter;stroke-opacity:1"
       x="381.83768"
       y="799.8241"
       id="text3414"
       sodipodi:linespacing="125%"><tspan
         sodipodi:role="line"
         id="tspan3416"
         x="381.83768"
         y="799.8241">CSS</tspan></text>
    <text
       xml:space="preserve"
       style="font-style:normal;font-weight:normal;font-size:40px;line-height:125%;font-family:sans-serif;letter-spacing:0px;word-spacing:0px;fill:#000000;fill-opacity:1;stroke:none;stroke-width:1px;stroke-linecap:butt;stroke-linejoin:miter;stroke-opacity:1"
       x="343.45187"
       y="850.33173"
       id="text3418"
       sodipodi:linespacing="125%"><tspan
         sodipodi:role="line"
         id="tspan3420"
         x="343.45187"
         y="850.33173">JavaScript</tspan></text>
    <path
       style="fill:#008000"
       id="path3422"
       d="m 218.74781,711.10327 c 7.20001,7.94698 14.99081,11.2992 24.97129,14.57673 15.54715,5.38979 32.02294,7.25703 48.38233,7.88968 10.47171,-0.0514 20.26927,-0.63586 29.45683,-5.95694 -42.72571,22.85131 -25.56594,16.01498 -17.69894,9.49364 2.08485,-1.72823 3.93249,-3.73819 5.84221,-5.65152 3.84378,-3.82437 8.23006,-7.01398 12.41907,-10.43522 12.1774,-9.17236 25.24678,-19.04942 40.64655,-20.66998 3.46754,-0.58861 6.65701,0.3074 9.84712,1.55744 0,0 -24.87829,16.84104 -24.87829,16.84104 l 0,0 c -2.95772,-0.86067 -5.89168,-1.05018 -8.93987,-0.43157 -2.10853,0.41562 -2.81372,0.48011 -4.83272,1.1654 -0.81146,0.27543 -3.1284,1.37681 -2.39583,0.93221 41.27648,-25.05124 27.11019,-16.17497 18.28222,-10.58528 -4.10265,3.48086 -8.47156,6.60161 -12.43985,10.23221 -2.05872,1.8525 -3.83737,3.91216 -5.82167,5.83944 -9.35774,9.08883 -23.60698,12.55337 -33.32692,20.3798 -9.42452,4.2026 -19.64715,4.59715 -29.85892,4.33245 -16.60118,-0.97067 -33.27184,-3.00527 -49.08961,-8.38029 -10.551,-3.61241 -18.2177,-7.41743 -26.09238,-15.48604 0,0 25.52738,-15.6432 25.52738,-15.6432 z"
       inkscape:connector-curvature="0" />
    <path
       style="fill:#008000"
       id="path3424"
       d="m 232.73741,788.99238 c 6.35642,-0.13626 12.7604,0.4579 19.11219,0.12056 4.08064,-0.21672 6.82526,-0.85031 10.84063,-1.58148 10.33341,-2.14538 20.80345,-3.613 31.24994,-5.10105 4.90911,-1.20854 10.0836,-1.42998 14.90347,-3.01333 1.75778,-0.57744 3.43887,-1.36643 5.16079,-2.04333 4.60215,-1.76255 9.52272,-2.25833 14.33943,-3.1427 6.12876,-1.60522 12.37709,-2.50597 18.67731,-3.0583 5.29844,-0.37334 10.61569,-0.39262 15.92509,-0.38831 3.36998,0.002 6.73994,0.002 10.10989,0.0163 0,0 -24.24246,17.60612 -24.24246,17.60612 l 0,0 c -3.36562,10e-4 -6.73121,-0.0168 -10.09683,-0.004 -5.24577,0.0449 -10.50008,0.0733 -15.72598,0.5895 -6.2554,0.67569 -12.41214,1.86022 -18.54044,3.28108 -4.75213,0.90031 -9.55141,1.62511 -14.02943,3.55907 -6.54312,2.32123 -13.39546,3.27903 -20.23228,4.3707 -10.4102,1.46646 -20.80542,3.06634 -31.12367,5.0889 -10.1571,1.49655 -20.33631,1.26962 -30.58331,1.32342 0,0 24.25566,-17.62277 24.25566,-17.62277 z"
       inkscape:connector-curvature="0" />
    <path
       style="fill:#008000"
       id="path3426"
       d="m 235.21492,875.88448 c 16.25933,0.42022 32.54628,-0.17957 48.76699,-1.30936 10.30611,-0.67688 19.79519,-3.51238 29.03253,2.33098 2.92943,2.64658 5.72322,6.94734 10.00013,7.58662 0.8715,0.13026 1.76084,-0.0735 2.64125,-0.1103 0.9736,-0.21158 1.96113,-0.36696 2.9208,-0.63472 2.77527,-0.77432 3.96447,-1.33673 6.53008,-2.76798 1.135,-0.63318 4.46753,-2.65684 3.33053,-2.02727 -22.11186,12.24342 -28.47283,17.36289 -18.03003,9.39966 6.66152,-4.87266 11.40182,-11.43647 15.37934,-18.55064 0,0 27.10172,-12.16409 27.10172,-12.16409 l 0,0 c -3.81971,7.37177 -8.28142,14.49755 -14.92513,19.67402 -12.17236,9.9809 -3.45484,3.12798 -32.69339,20.35235 -4.2695,2.51516 -8.97489,4.19757 -13.97417,4.07424 -1.07712,-0.219 -2.188,-0.31125 -3.23135,-0.657 -4.20895,-1.39481 -6.92802,-5.13422 -10.17483,-7.87495 -8.43086,-4.43104 -18.34707,-1.59211 -27.3861,-1.34462 -16.48113,0.94084 -32.98499,1.44273 -49.49178,1.60786 0,0 24.20341,-17.5848 24.20341,-17.5848 z"
       inkscape:connector-curvature="0" />
    <path
       style="fill:#88aa00"
       id="path3428"
       d="m 274.69112,593.57739 c -6.7327,4.30536 -12.70766,9.63905 -18.2927,15.32274 -5.5396,5.47454 -10.22935,11.69789 -14.29327,18.32263 -2.73106,5.17157 -6.1957,9.8722 -9.52893,14.65662 -3.55794,4.89402 -6.79427,9.94659 -9.69225,15.25428 -2.91081,5.84498 -7.19965,10.65184 -11.9377,15.06114 -11.6587,9.60007 -24.74828,18.97705 -39.88277,21.0178 -3.48545,0.23492 -1.7287,0.255 -5.27003,-0.0755 0,0 24.29796,-17.53154 24.29796,-17.53154 l 0,0 c 3.27372,-0.10936 1.63357,0.0334 4.9198,-0.43535 1.91651,-0.41872 2.76485,-0.53579 4.6261,-1.22411 0.79574,-0.29428 3.06459,-1.44365 2.33854,-1.00473 -41.88403,25.32086 -27.02989,16.74056 -18.74264,10.49375 4.93015,-3.93181 9.35965,-8.51742 12.39359,-14.09353 2.93983,-5.34027 5.78125,-10.6486 9.47735,-15.52465 3.36845,-4.73932 6.93558,-9.35925 9.7256,-14.47798 3.89101,-6.88318 8.58211,-13.32952 14.10346,-19.00352 5.48437,-5.7967 11.29105,-11.24169 17.78836,-15.90909 0,0 27.96953,-10.84897 27.96953,-10.84897 z"
       inkscape:connector-curvature="0" />
    <text
       xml:space="preserve"
       style="font-style:normal;font-weight:normal;font-size:24.29796028px;line-height:125%;font-family:sans-serif;letter-spacing:0px;word-spacing:0px;fill:#000000;fill-opacity:1;stroke:none;stroke-width:1px;stroke-linecap:butt;stroke-linejoin:miter;stroke-opacity:1"
       x="253.12282"
       y="601.02399"
       id="text3430"
       sodipodi:linespacing="125%"
       transform="scale(0.93363756,1.0710795)"><tspan
         sodipodi:role="line"
         id="tspan3432"
         x="253.12282"
         y="601.02399">Through the Internet</tspan><tspan
         sodipodi:role="line"
         x="253.12282"
         y="651.02399"
         id="tspan3434">wired of wifi</tspan></text>
    <path
       style="fill:#88aa00"
       id="path3438"
       d="m 255.34366,602.18262 c 0.18603,-7.94643 0.10668,-15.89685 0.0684,-23.84473 0.12655,-6.32578 -0.26084,-12.66678 0.1244,-18.98395 0.0988,-2.54246 0.79128,-4.92553 1.58859,-7.31472 0,0 27.2187,-12.58859 27.2187,-12.58859 l 0,0 c -1.00684,2.10697 -1.88,4.17047 -1.99581,6.55083 -0.78399,6.21954 -0.12852,12.54103 -0.35893,18.7948 -0.0379,7.92462 -0.11859,15.85185 0.0684,23.77498 0,0 -26.71384,13.61138 -26.71384,13.61138 z"
       inkscape:connector-curvature="0" />
    <text
       xml:space="preserve"
       style="font-style:normal;font-weight:normal;font-size:40px;line-height:125%;font-family:sans-serif;letter-spacing:0px;word-spacing:0px;fill:#000000;fill-opacity:1;stroke:none;stroke-width:1px;stroke-linecap:butt;stroke-linejoin:miter;stroke-opacity:1"
       x="44.446712"
       y="504.8595"
       id="text3442"
       sodipodi:linespacing="125%"><tspan
         sodipodi:role="line"
         id="tspan3444"
         x="44.446712"
         y="504.8595">The </tspan><tspan
         sodipodi:role="line"
         x="44.446712"
         y="554.8595"
         id="tspan3446">Cloud</tspan></text>
    <path
       style="fill:none;fill-rule:evenodd;stroke:#000000;stroke-width:1px;stroke-linecap:butt;stroke-linejoin:miter;stroke-opacity:1"
       d="m 393.95949,201.81376 c -2.13895,-1.47941 -12.75722,0.85131 -16.16244,0 -1.46088,-0.36522 -2.61204,-1.54411 -4.04061,-2.0203 -3.03046,-1.01016 -2.0203,2.0203 -6.06091,0 -1.70367,-0.85184 -2.45576,-2.98404 -4.04061,-4.04061 -0.56034,-0.37356 -1.36698,0.16333 -2.02031,0 -2.066,-0.5165 -3.99491,-1.50381 -6.06091,-2.02031 -1.30666,-0.32666 -2.83594,0.60234 -4.04061,0 -0.85184,-0.42592 -1.16847,-1.59439 -2.02031,-2.0203 -1.20468,-0.60234 -2.76286,0.42591 -4.04061,0 -1.42857,-0.47619 -2.64247,-1.46105 -4.04061,-2.02031 -1.97727,-0.79091 -4.15615,-1.06792 -6.06092,-2.0203 -0.85183,-0.42592 -1.2584,-1.44888 -2.0203,-2.02031 -1.94248,-1.45686 -3.88915,-2.95473 -6.06092,-4.04061 -0.53841,-0.2692 -11.20786,0 -12.12183,0 -2.69374,0 -5.38748,0 -8.08122,0 -0.67343,0 -1.34687,0 -2.0203,0 -0.67344,0 -1.41797,-0.30117 -2.02031,0 -1.70367,0.85184 -2.33694,3.18878 -4.04061,4.04061 -0.60234,0.30117 -1.41796,-0.30117 -2.0203,0 -0.85184,0.42592 -1.16847,1.59439 -2.02031,2.02031 -1.20467,0.60233 -2.83593,-0.60234 -4.04061,0 -0.85183,0.42591 -1.16847,1.59438 -2.0203,2.0203 -1.20468,0.60234 -2.83594,-0.60234 -4.04061,0 -0.85184,0.42592 -1.16847,1.59439 -2.02031,2.02031 -0.59919,0.29959 -10.16773,0 -12.12183,0 -0.67343,0 -1.45997,-0.37356 -2.0203,0 -1.58486,1.05657 -2.5168,2.89775 -4.04061,4.04061 -1.20468,0.9035 -2.78767,1.18501 -4.04061,2.0203 -1.58486,1.05657 -2.33694,3.18878 -4.04061,4.04061 -0.60234,0.30117 -1.34687,0 -2.02031,0 -1.34687,0.67344 -2.78767,1.18501 -4.04061,2.02031 -1.58486,1.05657 -2.33694,3.18877 -4.04061,4.04061 -0.60234,0.30117 -1.38143,-0.21296 -2.0203,0 -2.85715,0.95238 -5.22408,3.08823 -8.08122,4.04061 -0.63888,0.21296 -1.38143,-0.21296 -2.02031,0 -14.63391,4.87797 3.18523,-0.58246 -6.06091,4.04061 -1.90477,0.95238 -4.15616,1.06792 -6.06092,2.0203 -1.70367,0.85184 -2.33694,3.18878 -4.04061,4.04061 -4.97591,2.48796 1.8238,-5.86441 -6.06092,2.02031 -4.90692,4.90692 0.60078,2.96666 -4.04061,6.06091 -1.25294,0.8353 -2.78767,1.18501 -4.04061,2.02031 -2.77933,1.85289 -2.07784,3.11676 -4.04061,6.06091 -1.98188,2.97283 -6.09933,5.1084 -8.08122,8.08122 -1.67058,2.50588 -2.23359,5.67187 -4.04061,8.08122 -1.14285,1.52381 -2.69374,2.69374 -4.04061,4.04061 -0.67343,0.67344 -1.78932,1.09636 -2.0203,2.02031 -0.49,1.95998 0.48999,4.10093 0,6.06091 -0.23099,0.92395 -1.59439,1.16847 -2.02031,2.02031 -0.30117,0.60234 0.21296,1.38143 0,2.02031 -0.47619,1.42857 -1.54411,2.61203 -2.0203,4.04061 -0.21296,0.63887 0,1.34687 0,2.0203 -0.67344,1.34687 -1.34687,2.69374 -2.02031,4.04061 -0.67343,1.34687 -1.18501,2.78767 -2.0203,4.04061 -3.85409,5.78113 -0.37852,-3.09433 -4.04061,6.06092 -0.79091,1.97727 -1.50381,3.99491 -2.02031,6.06091 -0.16333,0.65333 0.30117,1.41797 0,2.02031 -0.67998,1.35995 -5.55693,7.5816 -6.06091,10.10152 -0.39622,1.98107 0,4.04061 0,6.06092 0,1.34687 0.42591,2.76285 0,4.04061 -0.30117,0.90351 -1.34687,1.34687 -2.02031,2.0203 -0.67343,2.02031 -1.5038,3.99491 -2.0203,6.06092 -0.40867,1.63466 0,9.80488 0,10.10152 0,0.67344 0,1.34687 0,2.02031 0,0.67343 0.37355,1.45997 0,2.0203 -1.05657,1.58486 -2.98404,2.45576 -4.04061,4.04061 -0.37356,0.56034 0,1.34687 0,2.02031 0,2.69374 0.52828,5.43979 0,8.08122 -0.29532,1.4766 -1.65509,2.57972 -2.02031,4.04061 -0.32666,1.30665 0,2.69374 0,4.04061 0,1.34687 0,2.69374 0,4.04061 0,4.71404 0,9.42809 0,14.14213 0,16.83588 0,33.67176 0,50.50763 0,10.10153 0,20.20305 0,30.30458 0,2.09029 -0.38487,12.60264 0,14.14213 0.36522,1.46089 1.54412,2.61204 2.02031,4.04061 0.21296,0.63888 -0.21296,1.38143 0,2.02031 0.47619,1.42857 1.54411,2.61204 2.0203,4.04061 0.42592,1.27775 -0.42592,2.76286 0,4.04061 0.47619,1.42857 1.54412,2.61204 2.02031,4.04061 0.42591,1.27775 -0.42592,2.76286 0,4.04061 0.47619,1.42857 1.65508,2.57972 2.0203,4.04061 0.32667,1.30666 0,2.69374 0,4.04061 0,0.67344 -0.30117,1.41797 0,2.02031 1.21219,2.42436 4.84873,3.63654 6.06092,6.06091 0.30117,0.60234 -0.30117,1.41797 0,2.02031 0.42592,0.85183 1.59438,1.16847 2.0203,2.0203 0.30117,0.60234 -0.21296,1.38143 0,2.02031 0.47619,1.42857 1.54412,2.61203 2.02031,4.04061 2.0047,6.0141 -4.78382,-4.14528 2.0203,6.06091 1.05657,1.58486 3.18878,2.33694 4.04061,4.04061 0.60234,1.20468 -0.42591,2.76286 0,4.04061 0.47619,1.42857 1.46105,2.64247 2.02031,4.04061 0.79091,1.97728 1.22939,4.08364 2.0203,6.06092 1.61922,4.04805 3.1785,5.19879 6.06092,8.08122 0.67343,0.67343 1.49202,1.22787 2.0203,2.0203 5.88252,8.82377 -0.89541,-0.66593 2.02031,8.08122 1.02642,3.07926 6.51063,2.91974 8.08122,6.06092 0.95238,1.90476 1.06792,4.15615 2.0203,6.06091 0.42592,0.85184 1.34687,1.34687 2.02031,2.02031 0.67343,0.67343 1.22788,1.49202 2.0203,2.0203 1.25294,0.8353 2.83594,1.1168 4.04061,2.02031 1.52381,1.14286 2.45576,2.98404 4.04061,4.04061 1.12067,0.74711 2.83594,-0.60234 4.04061,0 0.85184,0.42592 1.34687,1.34687 2.02031,2.0203 1.34687,0 2.76286,-0.42591 4.04061,0 0.90351,0.30117 1.16847,1.59439 2.0203,2.02031 0.60234,0.30117 1.38143,-0.21296 2.02031,0 1.42857,0.47619 2.64247,1.46105 4.04061,2.0203 1.97727,0.79091 4.15615,1.06793 6.06092,2.02031 0.85183,0.42592 1.11679,1.71914 2.0203,2.0203 1.27775,0.42592 2.69374,0 4.04061,0 4.04061,0 8.08122,0 12.12183,0 2.02031,0 4.10093,-0.48999 6.06092,0 1.46088,0.36523 2.57972,1.65509 4.04061,2.02031 3.1691,0.79228 6.93242,-0.79228 10.10152,0 0.92395,0.23099 1.16847,1.59439 2.02031,2.0203 0.76329,0.38165 9.58578,0 12.12183,0 10.77496,0 21.54992,0 32.32488,0 24.9171,0 49.83419,0 74.75129,0 9.42809,0 18.85618,0 28.28427,0 3.11611,0 9.75957,-0.47245 12.12183,0 1.4766,0.29533 2.57972,1.65509 4.04061,2.02031 0.98428,0.24607 7.01294,-0.53414 8.08122,0 1.70367,0.85184 2.33694,3.18877 4.04061,4.04061 1.11178,0.55589 10.54237,-0.52649 12.12183,0 1.80702,0.60234 2.19272,3.57864 4.04061,4.04061 1.95998,0.49 4.10093,-0.49 6.06092,0 1.15659,0.28915 6.73468,7.63238 8.08122,8.08122 1.27775,0.42592 2.76285,-0.42592 4.04061,0 0.9035,0.30117 1.16847,1.59439 2.0203,2.02031 0.60234,0.30117 1.41797,-0.30117 2.02031,0 0.85183,0.42591 1.16847,1.59438 2.0203,2.0203 1.20468,0.60234 2.76286,-0.42592 4.04061,0 1.47642,0.49214 5.1363,2.19138 6.06092,4.04061 0.64075,1.28151 -0.65622,8.78909 0,10.10153 1.21218,2.42436 4.84873,3.63655 6.06091,6.06091 0.60234,1.20468 -0.60234,2.83593 0,4.04061 1.08588,2.17176 2.79136,3.97883 4.04061,6.06092 0.77475,1.29125 1.1168,2.83593 2.02031,4.04061 1.14286,1.52381 2.69374,2.69374 4.04061,4.04061 1.34687,1.34687 2.69374,2.69374 4.04061,4.04061 1.34687,1.34687 2.45575,2.98404 4.04061,4.04061 0.56033,0.37355 1.41796,-0.30117 2.0203,0 0.85184,0.42592 1.16847,1.59439 2.02031,2.0203 1.90476,0.95238 3.99491,1.50381 6.06091,2.02031 0.65333,0.16333 1.44284,-0.34648 2.02031,0 2.88733,1.7324 5.00426,4.69337 8.08122,6.06091 3.1379,1.39463 6.74944,1.2754 10.10152,2.02031 2.71053,0.60234 5.44707,1.14225 8.08123,2.0203 3.44045,1.14682 6.58324,3.16104 10.10152,4.04061 1.95998,0.49 4.04061,0 6.06092,0 3.36717,0 6.76035,-0.41764 10.10152,0 19.56978,2.44623 -3.80431,2.02031 10.10153,2.02031 1.65158,0 13.11818,-0.34132 14.14213,0 0.90351,0.30117 1.13604,1.6666 2.02031,2.0203 3.34522,5.01746 8.23569,0.72493 12.12183,2.02031 2.85714,0.95238 5.26128,2.98313 8.08122,4.04061 12.1089,4.54084 3.8001,0.54287 14.14213,2.0203 5.49748,0.78536 10.717,2.95153 16.16244,4.04061 1.32072,0.26415 2.69374,0 4.04061,0 3.36718,0 6.73436,0 10.10153,0 3.36718,0 6.73435,0 10.10153,0 1.34687,0 2.69374,0 4.04061,0 0.67343,0 1.41796,0.30117 2.0203,0 1.07901,-0.5395 4.9973,-4.99729 6.06092,-6.06091 1.57803,-1.57803 4.8987,-4.31759 6.06091,-6.06092 0.83529,-1.25294 1.18501,-2.78767 2.02031,-4.04061 0.52828,-0.79243 1.59438,-1.16847 2.0203,-2.0203 0.30117,-0.60234 -0.37355,-1.45997 0,-2.02031 1.05657,-1.58485 2.98404,-2.45575 4.04061,-4.04061 0.37356,-0.56033 -0.30117,-1.41796 0,-2.0203 0.42592,-0.85184 1.59439,-1.16847 2.02031,-2.02031 0.30117,-0.60234 -0.30117,-1.41796 0,-2.0203 0.42591,-0.85184 1.59438,-1.16847 2.0203,-2.02031 0.30117,-0.60234 -0.30117,-1.41796 0,-2.0203 1.8394,-3.6788 1.53256,-1.18429 4.04061,-2.02031 0.92819,-0.30939 5.48303,-2.30696 6.06092,-4.04061 0,-9.197 -0.95238,-0.11554 2.0203,-6.06091 0.4495,-0.89899 -0.30802,-7.15716 0,-8.08122 0.60234,-1.80702 3.18878,-2.33694 4.04061,-4.04061 0.66946,-1.33891 -0.56442,-6.38795 0,-8.08122 0.47619,-1.42857 1.65509,-2.57973 2.02031,-4.04061 0.32666,-1.30666 -0.42592,-2.76286 0,-4.04061 0.30117,-0.90351 1.59439,-1.16847 2.0203,-2.02031 0.30117,-0.60234 -0.21296,-1.38143 0,-2.0203 0.47619,-1.42858 1.54412,-2.61204 2.02031,-4.04061 0.42592,-1.27776 -0.42592,-2.76286 0,-4.04061 4.87797,-14.63392 -0.58246,3.18522 4.04061,-6.06092 0.30049,-0.60099 0,-11.27196 0,-12.12183 0,-4.04061 0,-8.08122 0,-12.12183 0,-0.67344 0,-1.34687 0,-2.02031 0,-0.67343 0.30117,-1.41796 0,-2.0203 -0.42592,-0.85184 -1.59439,-1.16847 -2.02031,-2.02031 -0.53414,-1.06828 0.24607,-7.09694 0,-8.08122 -0.36522,-1.46088 -1.54411,-2.61204 -2.0203,-4.04061 -0.42592,-1.27775 0,-2.69374 0,-4.04061 0,-6.73435 0,-13.4687 0,-20.20305 0,-17.50931 0,-35.01862 0,-52.52793 0,-31.65145 0,-63.30289 0,-94.95434 0,-8.08122 0,-16.16244 0,-24.24366 0,-1.61212 0.40402,-8.88946 0,-10.10153 -0.47619,-1.42857 -1.54412,-2.61203 -2.02031,-4.04061 -0.42591,-1.27775 0.74711,-2.91994 0,-4.04061 -1.05657,-1.58485 -3.06062,-2.40729 -4.04061,-4.04061 -1.09566,-1.8261 -1.06792,-4.15615 -2.0203,-6.06091 -0.42592,-0.85184 -1.59439,-1.16847 -2.02031,-2.02031 -0.30117,-0.60234 0.30117,-1.41796 0,-2.0203 -0.42592,-0.85184 -1.71913,-1.1168 -2.0203,-2.02031 -0.42592,-1.27775 0,-2.69374 0,-4.04061 0,-0.67343 0.30117,-1.41796 0,-2.0203 -0.42592,-0.85184 -1.34687,-1.34687 -2.02031,-2.02031 -1.34687,-1.34687 -2.98404,-2.45575 -4.04061,-4.04061 -0.37355,-0.56033 0.37356,-1.45997 0,-2.0203 -1.05657,-1.58486 -2.69374,-2.69374 -4.04061,-4.04061 -2.0203,-2.02031 -4.04061,-4.04061 -6.06091,-6.06092 -0.67344,-0.67343 -1.34687,-1.34687 -2.02031,-2.0203 -0.67343,-0.67344 -1.71913,-1.1168 -2.0203,-2.02031 -2.04365,-6.13094 3.84253,-2.82579 -4.04061,-8.08122 -0.56034,-0.37355 -1.41797,0.30117 -2.02031,0 -9.24614,-4.62307 8.573,0.83736 -6.06091,-4.04061 -0.63888,-0.21296 -1.45998,0.37356 -2.02031,0 -1.58486,-1.05657 -2.5168,-2.89775 -4.04061,-4.04061 -1.20468,-0.90351 -2.69374,-1.34687 -4.04061,-2.0203 -1.34687,-0.67344 -2.64247,-1.46105 -4.04061,-2.02031 -1.97727,-0.79091 -4.23481,-0.92464 -6.06091,-2.0203 -1.63332,-0.98 -2.4073,-3.06062 -4.04061,-4.04061 -1.82611,-1.09567 -4.08365,-1.2294 -6.06092,-2.02031 -1.39814,-0.55926 -2.69374,-1.34687 -4.04061,-2.0203 -2.69374,-1.34687 -5.49872,-2.49111 -8.08122,-4.04061 -1.63332,-0.98 -2.19272,-3.57864 -4.04061,-4.04061 -1.95998,-0.49 -4.07984,0.39621 -6.06092,0 -2.9532,-0.59065 -5.15945,-3.31017 -8.08122,-4.04061 -1.30665,-0.32667 -2.73395,0.32666 -4.04061,0 -3.16333,-0.79084 -9.1283,-5.46222 -12.12183,-6.06092 -1.98107,-0.39621 -4.07984,0.39621 -6.06091,0 -1.47661,-0.29532 -2.57973,-1.65508 -4.04061,-2.02031 -1.30666,-0.32666 -2.7199,0.26415 -4.04061,0 -2.08824,-0.41764 -3.97268,-1.60265 -6.06092,-2.0203 -4.69045,-0.93809 -11.89681,1.42188 -16.16244,0 -1.80701,-0.60234 -2.27208,-3.3332 -4.04061,-4.04061 -1.87581,-0.75032 -4.07984,0.39621 -6.06091,0 -1.47661,-0.29532 -2.61204,-1.54412 -4.04061,-2.02031 -2.63416,-0.87805 -5.3585,-1.47576 -8.08122,-2.0203 -0.66036,-0.13207 -1.34687,0 -2.02031,0 -2.69374,0 -5.40828,0.33412 -8.08122,0 -1.72616,-0.21577 -11.90573,-2.92241 -14.14214,-4.04061 -2.17176,-1.08588 -3.72623,-3.37356 -6.06091,-4.04061 -2.5901,-0.74003 -5.41455,0.38095 -8.08122,0 -4.21637,-0.60234 -7.90546,-3.43827 -12.12183,-4.04061 -2.66667,-0.38095 -5.38748,0 -8.08122,0 -1.34687,0 -2.76286,0.42592 -4.04061,0 -2.85715,-0.95238 -5.28494,-2.9221 -8.08122,-4.04061 -0.62527,-0.25011 -1.38143,0.21296 -2.02031,0 -1.42857,-0.47619 -2.61204,-1.54412 -4.04061,-2.02031 -1.27775,-0.42591 -2.83593,0.60234 -4.04061,0 -0.85183,-0.42591 -1.1168,-1.71913 -2.0203,-2.0203 -1.81828,-0.60609 -4.24264,0.60609 -6.06092,0 -11.44641,-5.72321 3.01169,0.75292 -8.08122,-2.02031 -3.65663,1.2177 -3.75741,-3.27277 -6.06091,-4.04061 -1.27776,-0.42591 -2.73396,0.32667 -4.04061,0 -1.46089,-0.36522 -2.61204,-1.54411 -4.04061,-2.0203 -0.63888,-0.21296 -1.36698,0.16333 -2.02031,0 -2.066,-0.5165 -3.99491,-1.50381 -6.06092,-2.02031 -0.65332,-0.16333 -1.41796,0.30117 -2.0203,0 -0.85184,-0.42591 -1.1168,-1.71913 -2.02031,-2.0203 -1.27775,-0.42592 -2.83593,0.60234 -4.04061,0 -1.70367,-0.85184 -2.45575,-2.98404 -4.04061,-4.04061 -0.56033,-0.37356 -1.38142,0.21296 -2.0203,0 -1.42857,-0.47619 -2.61204,-1.54412 -4.04061,-2.02031 -0.63888,-0.21296 -1.41797,0.30117 -2.02031,0 -0.85183,-0.42592 -1.16847,-1.59438 -2.0203,-2.0203 -0.60234,-0.30117 -1.34687,0 -2.02031,0 -1.34687,0 -2.76285,0.42592 -4.04061,0 -0.9035,-0.30117 -1.16847,-1.59439 -2.0203,-2.02031 -0.60234,-0.30117 -1.34687,0 -2.02031,0 -1.34687,-1.34687 -2.45575,-2.98404 -4.04061,-4.04061 -0.56033,-0.37355 -1.41796,0.30117 -2.0203,0 -0.85184,-0.42592 -1.16847,-1.59439 -2.02031,-2.0203 -1.20467,-0.60234 -2.83593,0.60234 -4.04061,0 -6.89775,-3.44888 6.24825,-2.02031 -8.08122,-2.02031 z"
       id="path3467"
       inkscape:connector-curvature="0"
       inkscape:export-xdpi="90"
       inkscape:export-ydpi="90" />
    <path
       style="fill:#008000"
       id="path3469"
       d="m 412.86065,511.63159 c 7.5891,2.96678 15.51035,4.84425 23.56326,5.96496 6.50395,1.48492 13.13674,2.13833 19.78429,2.49549 7.00841,-0.0257 13.9433,0.98406 20.91207,1.59037 5.93019,1.13058 8.80392,-1.31011 13.79008,-3.508 0,0 -23.52209,18.6658 -23.52209,18.6658 l 0,0 c -4.74598,2.20185 -9.31413,3.15799 -14.58522,2.16967 -6.94306,-0.67894 -13.87421,-1.43688 -20.8585,-1.52051 -6.69651,-0.47987 -13.33972,-1.35729 -19.91527,-2.73854 -8.20444,-1.41225 -16.22471,-3.61177 -24.05645,-6.44579 0,0 24.88783,-16.67345 24.88783,-16.67345 z"
       inkscape:connector-curvature="0" />
    <path
       sodipodi:type="star"
       style="fill:#ffcc00"
       id="path3485"
       sodipodi:sides="5"
       sodipodi:cx="276.7818"
       sodipodi:cy="383.64121"
       sodipodi:r1="143.04274"
       sodipodi:r2="71.52137"
       sodipodi:arg1="2.2058231"
       sodipodi:arg2="2.8341416"
       inkscape:flatsided="false"
       inkscape:rounded="0"
       inkscape:randomized="0"
       d="m 191.92898,498.79859 16.68523,-93.51286 -67.57456,-66.75876 94.09204,-13.02847 42.60967,-84.89682 41.46685,85.46083 93.90878,14.28965 -68.46412,65.84616 15.42915,93.7283 -83.78,-44.76565 z"
       inkscape:transform-center-x="-0.29651811"
       inkscape:transform-center-y="-13.377053" />
    <path
       sodipodi:type="star"
       style="fill:#ffcc00"
       id="path3487"
       sodipodi:sides="5"
       sodipodi:cx="117.1777"
       sodipodi:cy="771.5398"
       sodipodi:r1="134.87712"
       sodipodi:r2="67.43856"
       sodipodi:arg1="1.282209"
       sodipodi:arg2="1.9105275"
       inkscape:flatsided="false"
       inkscape:rounded="0"
       inkscape:randomized="0"
       d="M 155.56349,900.83933 94.704899,835.12386 6.0683975,848.00261 49.761184,769.81545 10.12258,689.49688 l 87.862218,17.39315 64.138492,-62.51836 10.60905,88.93672 79.27838,41.6801 -81.30546,37.57276 z"
       inkscape:transform-center-x="-11.861864"
       inkscape:transform-center-y="1.0657034" />
  </g>
</svg>
